<svg xmlns="http://www.w3.org/2000/svg" version="1.1" xmlns:xlink="http://www.w3.org/1999/xlink" xmlns:svgjs="http://svgjs.dev/svgjs" width="2000" height="1500" viewBox="0 0 2000 1500"><rect width="2000" height="1500" fill="#ed1703"></rect><g transform="matrix(0.4444444444444444,0,0,0.4444444444444444,555.5555555555557,250)"><svg viewBox="0 0 320 360" data-background-color="#ed1703" preserveAspectRatio="xMidYMid meet" height="2250" width="2000" xmlns="http://www.w3.org/2000/svg" xmlns:xlink="http://www.w3.org/1999/xlink"><g id="tight-bounds" transform="matrix(1,0,0,1,0,0)"><svg viewBox="0 0 320 360" height="360" width="320"><g><svg></svg></g><g><svg viewBox="0 0 320 360" height="360" width="320"><g><path xmlns="http://www.w3.org/2000/svg" d="M159.823 340.15v0c-7.794 0-14.524-4.96-16.65-12.399-1.063-3.897-5.314-6.022-8.856-4.96-1.417 0.354-2.834 1.417-3.897 2.834-5.668 7.794-16.296 9.919-24.444 4.251-4.96-3.188-7.794-8.856-7.439-14.878 0-3.897-3.188-7.439-7.085-7.44-1.771 0-3.188 0.354-4.605 1.417-7.794 5.668-18.775 4.251-24.444-3.542-3.543-4.605-4.605-10.628-2.479-16.296 1.417-3.897-0.709-7.794-4.606-9.21-1.417-0.354-3.188-0.354-4.605 0-9.211 3.188-19.13-1.771-22.318-10.982-1.771-5.314-1.063-11.69 2.48-16.296 2.48-3.188 1.771-7.794-1.417-9.919-1.417-1.063-2.834-1.417-4.605-1.417-9.565 0.354-17.713-7.439-17.713-17.004 0-6.022 2.834-11.336 7.439-14.879 3.188-2.126 3.897-6.731 1.771-9.919-1.063-1.417-2.126-2.126-3.896-2.834-9.211-2.834-14.524-12.753-11.691-21.963 1.771-5.668 6.022-9.919 11.691-11.691 3.897-1.063 6.022-5.314 4.959-8.856-0.354-1.417-1.417-2.834-2.834-3.897-7.794-5.668-9.919-16.296-4.251-24.443 3.188-4.96 8.856-7.794 14.879-7.44 3.897 0 7.439-3.188 7.439-7.085 0-1.771-0.354-3.188-1.417-4.605-5.668-7.794-4.251-18.775 3.543-24.443 4.605-3.543 10.628-4.605 16.295-2.48 3.897 1.417 7.794-0.709 9.211-4.605 0.354-1.417 0.354-3.188 0-4.606-3.188-9.211 1.771-19.13 10.982-22.318 5.314-1.771 11.69-1.063 16.295 2.48 3.188 2.48 7.794 1.771 9.919-1.417 1.063-1.417 1.417-2.834 1.417-4.605-0.354-9.565 7.439-17.713 17.005-17.713 6.022 0 11.336 2.834 14.878 7.439 2.126 3.188 6.731 3.897 9.919 1.772 1.417-1.063 2.126-2.126 2.834-3.897 2.834-9.211 12.753-14.524 21.964-11.69 5.668 1.771 9.919 6.022 11.69 11.69v0c0.709 2.48 2.834 4.605 5.668 4.96 2.834 0.354 5.314-0.709 7.085-2.835 5.668-7.794 16.296-9.919 24.444-4.251 4.96 3.188 7.794 8.856 7.439 14.879 0 3.897 3.188 7.439 7.085 7.439 1.771 0 3.188-0.354 4.605-1.417 7.794-5.668 18.775-4.251 24.444 3.543 3.543 4.605 4.605 10.628 2.48 16.296-1.417 3.897 0.709 7.794 4.605 9.21 1.417 0.354 3.188 0.354 4.605 0 9.211-3.188 19.13 1.771 22.318 10.982 1.771 5.314 1.063 11.69-2.48 16.296-2.48 3.188-1.771 7.794 1.417 9.919 1.417 1.063 2.834 1.417 4.606 1.417 9.565-0.354 17.713 7.439 17.712 17.004 0 6.022-2.834 11.336-7.439 14.878-2.48 1.417-3.543 4.251-3.188 7.085 0.354 2.834 2.48 4.96 4.959 5.669 9.211 2.834 14.524 12.753 11.691 21.963-1.771 5.668-6.022 9.919-11.691 11.691-3.897 1.063-6.022 5.314-4.959 8.856 0.354 1.417 1.417 2.834 2.834 3.897 7.794 5.668 9.919 16.296 4.251 24.443-3.188 4.96-8.856 7.794-14.879 7.439-2.834 0-5.314 1.417-6.731 3.897-1.417 2.48-1.063 5.314 0.709 7.794 5.668 7.794 4.251 18.775-3.543 24.443-4.605 3.543-10.628 4.605-16.295 2.48-3.897-1.417-7.794 0.709-9.211 4.605-0.354 1.417-0.354 3.188 0 4.606 3.188 9.211-1.771 19.13-10.982 22.317-5.314 1.771-11.69 1.063-16.295-2.479-3.188-2.48-7.794-1.771-9.919 1.417-1.063 1.417-1.417 2.834-1.417 4.605 0.354 9.565-7.439 17.713-17.005 17.713-6.022 0-11.336-2.834-14.878-7.44-1.417-2.126-4.251-3.543-7.085-2.834-2.834 0.354-4.96 2.48-5.668 4.96-2.126 7.439-8.856 12.399-16.65 12.399zM136.088 312.518c1.063 0 1.771 0 2.834 0.354 6.731 1.063 12.045 5.668 13.816 12.045 1.063 3.897 5.314 6.022 8.856 4.605 2.126-0.709 3.897-2.48 4.605-4.605 2.834-9.211 12.753-14.524 21.964-11.691 3.543 1.063 7.085 3.543 9.211 6.731 2.48 3.188 6.731 3.897 10.273 1.417 1.771-1.417 2.834-3.543 2.834-5.668-0.354-9.565 7.439-17.713 17.004-17.712 3.897 0 7.794 1.063 10.982 3.542 3.188 2.48 7.794 1.771 9.919-1.417 1.417-1.771 1.771-4.605 1.063-6.731-3.188-9.211 1.417-19.13 10.627-22.318 3.897-1.417 7.794-1.417 11.691 0 3.897 1.417 7.794-0.709 9.21-4.605 0.709-2.126 0.354-4.96-1.062-6.731-5.668-7.794-4.251-18.775 3.542-24.443 3.188-2.48 7.085-3.543 10.982-3.543 3.897 0 7.085-3.188 7.439-7.085 0-2.48-1.063-4.605-3.188-6.022-7.794-5.668-9.919-16.296-4.251-24.443 2.126-3.188 5.314-5.668 9.211-6.731 3.897-1.063 6.022-5.314 4.605-8.857-0.709-2.126-2.48-3.897-4.605-4.605-9.211-2.834-14.524-12.753-11.691-21.964 1.063-3.543 3.543-7.085 6.731-9.21 3.188-2.48 3.897-7.085 1.417-10.273-1.417-1.771-3.543-2.834-5.668-2.834-9.565 0.354-17.713-7.439-17.713-17.005 0-3.897 1.063-7.794 3.543-10.981 2.48-3.188 1.771-7.794-1.417-9.92-1.771-1.417-4.605-1.771-6.731-1.062-9.211 3.188-19.13-1.417-22.318-10.628-1.417-3.897-1.417-7.794 0-11.69 1.417-3.897-0.709-7.794-4.605-9.211-2.126-0.709-4.96-0.354-6.731 1.063-7.794 5.668-18.775 4.251-24.443-3.543-2.48-3.188-3.543-7.085-3.543-10.981 0-3.897-3.188-7.085-7.439-7.085-2.126 0-4.605 1.063-5.668 2.834-5.668 7.794-16.296 9.919-24.444 4.251-3.188-2.126-5.668-5.314-6.731-9.211v0c-1.063-3.897-5.314-6.022-8.856-4.605-2.126 0.709-3.897 2.48-4.605 4.605-2.834 9.211-12.753 14.524-21.964 11.69-3.543-1.063-7.085-3.543-9.21-6.73-2.48-3.188-6.731-3.897-10.274-1.417-1.771 1.417-2.834 3.543-2.834 5.668 0.354 9.565-7.439 17.713-17.004 17.712-3.897 0-7.794-1.063-10.982-3.542-3.188-2.48-7.794-1.771-9.919 1.417-1.417 1.771-1.771 4.605-1.063 6.731 3.188 9.211-1.417 19.13-10.627 22.317-3.897 1.417-7.794 1.417-11.691 0-3.897-1.417-7.794 0.709-9.21 4.606-0.709 2.126-0.354 4.96 1.063 6.731 5.668 7.794 4.251 18.775-3.543 24.443-3.188 2.48-7.085 3.543-10.982 3.543-3.897 0-7.085 3.188-7.085 7.439 0 2.126 1.063 4.605 2.834 5.668 7.794 5.668 9.919 16.296 4.251 24.443-2.126 3.188-5.314 5.668-9.21 6.731-3.897 1.063-6.022 5.314-4.606 8.856 0.709 2.126 2.48 3.897 4.606 4.606 9.211 2.834 14.524 12.753 11.69 21.963-1.063 3.543-3.543 7.085-6.731 9.211-3.188 2.48-3.897 6.731-1.417 10.273 1.417 1.771 3.543 2.834 5.668 2.834 9.565-0.354 17.713 7.439 17.713 17.004 0 3.897-1.063 7.794-3.543 10.982-2.48 3.188-1.771 7.794 1.417 9.919 1.771 1.417 4.605 1.771 6.731 1.063 9.211-3.188 19.13 1.417 22.318 10.628 1.417 3.897 1.417 7.794 0 11.69-1.417 3.897 0.709 7.794 4.605 9.211 2.126 0.709 4.96 0.354 6.731-1.063 7.794-5.668 18.775-4.251 24.444 3.542 2.48 3.188 3.543 7.085 3.542 10.982 0 3.897 3.188 7.085 7.085 7.44 2.48 0 4.605-1.063 6.023-3.189 3.543-4.605 8.856-7.439 14.524-7.439z" fill="#ffffff" fill-rule="nonzero" stroke="none" stroke-width="1" stroke-linecap="butt" stroke-linejoin="miter" stroke-miterlimit="10" stroke-dasharray="" stroke-dashoffset="0" font-family="none" font-weight="none" font-size="none" text-anchor="none" style="mix-blend-mode: normal" data-fill-palette-color="tertiary"></path></g><g transform="matrix(1,0,0,1,93.2484155182659,90)"><svg viewBox="0 0 133.5031689634682 180" height="180" width="133.5031689634682"><g><svg viewBox="0 0 133.5031689634682 180" height="180" width="133.5031689634682"><g><svg viewBox="0 0 208 280.4427811765658" height="180" width="133.5031689634682"><g transform="matrix(1,0,0,1,0,168.68267311036055)"><svg viewBox="0 0 208 111.76010806620525" height="111.76010806620525" width="208"><g id="textblocktransform"><svg viewBox="0 0 208 111.76010806620525" height="111.76010806620525" width="208" id="textblock"><g><svg viewBox="0 0 208 60.27806199217575" height="60.27806199217575" width="208"><g transform="matrix(1,0,0,1,0,0)"><svg width="208" viewBox="0.6500000357627869 -38.79999923706055 166.13999938964844 48.150001525878906" height="60.27806199217575" data-palette-color="#ffffff"><path d="M0.65-34.65L28.3-34.65 28.3-29.2 17.65-29.2 17.65 0 11.3 0 11.3-29.2 0.65-29.2 0.65-34.65ZM38.85 0L32.8 0 32.8-37.8 38.85-38.8 38.85-25.85Q39.85-26.2 41.17-26.45 42.5-26.7 43.8-26.7L43.8-26.7Q46.95-26.7 49.02-25.83 51.1-24.95 52.35-23.38 53.6-21.8 54.12-19.6 54.65-17.4 54.65-14.7L54.65-14.7 54.65 0 48.6 0 48.6-13.75Q48.6-15.85 48.32-17.32 48.05-18.8 47.42-19.73 46.8-20.65 45.75-21.08 44.7-21.5 43.15-21.5L43.15-21.5Q41.95-21.5 40.7-21.25 39.45-21 38.85-20.8L38.85-20.8 38.85 0ZM68-26.15L68 0 61.95 0 61.95-26.15 68-26.15ZM68.65-33.8L68.65-33.8Q68.65-32.1 67.55-31.1 66.45-30.1 64.95-30.1L64.95-30.1Q63.4-30.1 62.3-31.1 61.2-32.1 61.2-33.8L61.2-33.8Q61.2-35.55 62.3-36.55 63.4-37.55 64.95-37.55L64.95-37.55Q66.45-37.55 67.55-36.55 68.65-35.55 68.65-33.8ZM74.24-12.95L74.24-12.95Q74.24-16.4 75.27-19 76.29-21.6 77.99-23.33 79.69-25.05 81.89-25.93 84.09-26.8 86.39-26.8L86.39-26.8Q91.79-26.8 94.82-23.45 97.84-20.1 97.84-13.45L97.84-13.45Q97.84-12.95 97.82-12.33 97.79-11.7 97.74-11.2L97.74-11.2 80.49-11.2Q80.74-8.05 82.72-6.33 84.69-4.6 88.44-4.6L88.44-4.6Q90.64-4.6 92.47-5 94.29-5.4 95.34-5.85L95.34-5.85 96.14-0.9Q95.64-0.65 94.77-0.38 93.89-0.1 92.77 0.13 91.64 0.35 90.34 0.5 89.04 0.65 87.69 0.65L87.69 0.65Q84.24 0.65 81.69-0.38 79.14-1.4 77.49-3.23 75.84-5.05 75.04-7.53 74.24-10 74.24-12.95ZM80.54-15.65L91.79-15.65Q91.79-16.9 91.44-18.03 91.09-19.15 90.42-19.98 89.74-20.8 88.77-21.28 87.79-21.75 86.44-21.75L86.44-21.75Q85.04-21.75 83.99-21.23 82.94-20.7 82.22-19.85 81.49-19 81.09-17.9 80.69-16.8 80.54-15.65L80.54-15.65ZM120.19-25.8L119.14-20.7Q118.39-20.95 117.06-21.23 115.74-21.5 113.99-21.5L113.99-21.5Q112.99-21.5 111.87-21.3 110.74-21.1 110.29-20.95L110.29-20.95 110.29 0 104.24 0 104.24-24.9Q105.99-25.55 108.61-26.13 111.24-26.7 114.44-26.7L114.44-26.7Q115.04-26.7 115.84-26.63 116.64-26.55 117.44-26.43 118.24-26.3 118.99-26.13 119.74-25.95 120.19-25.8L120.19-25.8ZM140.34-25.8L139.29-20.7Q138.54-20.95 137.21-21.23 135.89-21.5 134.14-21.5L134.14-21.5Q133.14-21.5 132.01-21.3 130.89-21.1 130.44-20.95L130.44-20.95 130.44 0 124.39 0 124.39-24.9Q126.14-25.55 128.76-26.13 131.39-26.7 134.59-26.7L134.59-26.7Q135.19-26.7 135.99-26.63 136.79-26.55 137.59-26.43 138.39-26.3 139.14-26.13 139.89-25.95 140.34-25.8L140.34-25.8ZM160.53-26.15L166.79-26.15Q162.74-11.25 157.39 0.85L157.39 0.85Q156.39 3.1 155.34 4.7 154.28 6.3 152.99 7.35 151.69 8.4 150.09 8.88 148.49 9.35 146.39 9.35L146.39 9.35Q144.99 9.35 143.61 9.05 142.24 8.75 141.53 8.4L141.53 8.4 142.64 3.55Q144.44 4.25 146.19 4.25L146.19 4.25Q148.53 4.25 149.86 3.13 151.19 2 152.19-0.35L152.19-0.35Q149.34-5.85 146.71-12.35 144.09-18.85 142.03-26.15L142.03-26.15 148.49-26.15Q148.99-24.05 149.71-21.6 150.44-19.15 151.28-16.63 152.14-14.1 153.09-11.6 154.03-9.1 154.99-6.95L154.99-6.95Q156.59-11.4 157.99-16.43 159.39-21.45 160.53-26.15L160.53-26.15Z" opacity="1" transform="matrix(1,0,0,1,0,0)" fill="#ffffff" class="undefined-text-0" data-fill-palette-color="primary" id="text-0"></path></svg></g></svg></g><g transform="matrix(1,0,0,1,0,74.50826575504064)"><svg viewBox="0 0 208 37.251842311164616" height="37.251842311164616" width="208"><g transform="matrix(1,0,0,1,0,0)"><svg width="208" viewBox="2 -35 251.25999450683594 45" height="37.251842311164616" data-palette-color="#ffffff"><path d="M12.25 0.75Q9.3 0.75 7-0.78 4.7-2.3 3.35-5.28 2-8.25 2-12.5L2-12.5Q2-18.9 4.98-22.33 7.95-25.75 13-25.75L13-25.75Q15.4-25.75 17.2-24.75L17.2-24.75Q17.95-24.4 18.75-23.75L18.75-23.75 18.75-33.5 15.75-34.25 15.75-35 22.25-35Q26.75-35 26.75-30.5L26.75-30.5 26.75-1.5 29.75-0.75 29.75 0 25.25 0Q22.25 0 20.6-1.85L20.6-1.85Q19.9-2.6 19.5-3.75L19.5-3.75Q18.85-2.5 17.85-1.5L17.85-1.5Q15.6 0.75 12.25 0.75L12.25 0.75ZM14.25-1Q16.1-1 17.6-3L17.6-3Q18.15-3.75 18.75-5L18.75-5 18.75-22.25Q18.2-22.8 17.6-23.25L17.6-23.25Q16.25-24.25 15-24.25L15-24.25Q12.85-24.25 11.68-21.75 10.5-19.25 10.5-12.5L10.5-12.5Q10.5-6.05 11.58-3.53 12.65-1 14.25-1L14.25-1ZM47.44 0.75Q41.04 0.75 37.49-2.78 33.94-6.3 33.94-12.5L33.94-12.5Q33.94-16.55 35.49-19.55 37.04-22.55 39.81-24.15 42.59-25.75 46.19-25.75L46.19-25.75Q49.79-25.75 52.51-24.4 55.24-23.05 56.71-20.78 58.19-18.5 58.19-15.75L58.19-15.75Q58.19-14.5 57.94-13.6L57.94-13.6 57.69-12.75Q55.54-12.3 53.04-12L53.04-12Q47.79-11.25 42.44-11.25L42.44-11.25Q42.44-5.45 44.04-2.98 45.64-0.5 48.44-0.5L48.44-0.5Q50.39-0.5 52.06-1.43 53.74-2.35 54.71-3.88 55.69-5.4 55.69-7L55.69-7 56.94-7Q56.94-5 55.74-3.2 54.54-1.4 52.39-0.33 50.24 0.75 47.44 0.75L47.44 0.75ZM42.44-12.5Q45.64-12.5 47.64-12.75L47.64-12.75Q48.49-12.8 49.44-13L49.44-13Q49.49-13.25 49.69-14.1L49.69-14.1Q49.94-15.35 49.94-16.75L49.94-16.75Q49.94-20.9 48.84-22.83 47.74-24.75 46.19-24.75L46.19-24.75Q42.44-24.75 42.44-12.5L42.44-12.5ZM74.88 0.5L62.38-23.5 59.88-24.25 59.88-25 66.13-25Q68.73-25 70.25-23.93 71.78-22.85 72.88-20.75L72.88-20.75 78.83-9.2 84.38-22.75 80.63-24.25 80.63-25 89.88-25 89.88-24.25 85.88-22.75 76.38 0.5 74.88 0.5ZM104.32 0.75Q97.92 0.75 94.37-2.78 90.82-6.3 90.82-12.5L90.82-12.5Q90.82-16.55 92.37-19.55 93.92-22.55 96.69-24.15 99.47-25.75 103.07-25.75L103.07-25.75Q106.67-25.75 109.39-24.4 112.12-23.05 113.59-20.78 115.07-18.5 115.07-15.75L115.07-15.75Q115.07-14.5 114.82-13.6L114.82-13.6 114.57-12.75Q112.42-12.3 109.92-12L109.92-12Q104.67-11.25 99.32-11.25L99.32-11.25Q99.32-5.45 100.92-2.98 102.52-0.5 105.32-0.5L105.32-0.5Q107.27-0.5 108.94-1.43 110.62-2.35 111.59-3.88 112.57-5.4 112.57-7L112.57-7 113.82-7Q113.82-5 112.62-3.2 111.42-1.4 109.27-0.33 107.12 0.75 104.32 0.75L104.32 0.75ZM99.32-12.5Q102.52-12.5 104.52-12.75L104.52-12.75Q105.37-12.8 106.32-13L106.32-13Q106.37-13.25 106.57-14.1L106.57-14.1Q106.82-15.35 106.82-16.75L106.82-16.75Q106.82-20.9 105.72-22.83 104.62-24.75 103.07-24.75L103.07-24.75Q99.32-24.75 99.32-12.5L99.32-12.5ZM119.76 0L119.76-0.75 122.76-1.5 122.76-33.5 119.76-34.25 119.76-35 126.26-35Q130.76-35 130.76-30.5L130.76-30.5 130.76-1.5 133.76-0.75 133.76 0 119.76 0ZM150.95 0.75Q144.75 0.75 141.22-2.78 137.7-6.3 137.7-12.5L137.7-12.5Q137.7-18.7 141.22-22.23 144.75-25.75 150.95-25.75L150.95-25.75Q157.15-25.75 160.67-22.23 164.2-18.7 164.2-12.5L164.2-12.5Q164.2-6.3 160.67-2.78 157.15 0.75 150.95 0.75L150.95 0.75ZM150.95-0.25Q152.95-0.25 154.32-3.05 155.7-5.85 155.7-12.5L155.7-12.5Q155.7-19.15 154.32-21.95 152.95-24.75 150.95-24.75L150.95-24.75Q148.95-24.75 147.57-21.95 146.2-19.15 146.2-12.5L146.2-12.5Q146.2-5.85 147.57-3.05 148.95-0.25 150.95-0.25L150.95-0.25ZM168.63 10L168.63 9.25 171.63 8.5 171.63-23.5 168.63-24.25 168.63-25 173.13-25Q176.08-25 177.78-23.1L177.78-23.1Q178.43-22.35 178.88-21.25L178.88-21.25Q179.53-22.55 180.53-23.5L180.53-23.5Q182.78-25.75 186.13-25.75L186.13-25.75Q189.08-25.75 191.38-24.23 193.68-22.7 195.03-19.73 196.38-16.75 196.38-12.5L196.38-12.5Q196.38-6.1 193.41-2.68 190.43 0.75 185.38 0.75L185.38 0.75Q182.98 0.75 181.18-0.25L181.18-0.25Q180.43-0.6 179.63-1.25L179.63-1.25 179.63 8.5 182.63 9.25 182.63 10 168.63 10ZM183.38-0.75Q185.53-0.75 186.71-3.25 187.88-5.75 187.88-12.5L187.88-12.5Q187.88-18.95 186.81-21.48 185.73-24 184.13-24L184.13-24Q182.23-24 180.73-22L180.73-22Q180.08-21.15 179.63-20L179.63-20 179.63-2.75Q180.33-2.05 180.73-1.75L180.73-1.75Q182.08-0.75 183.38-0.75L183.38-0.75ZM214.82 0.75Q208.42 0.75 204.87-2.78 201.32-6.3 201.32-12.5L201.32-12.5Q201.32-16.55 202.87-19.55 204.42-22.55 207.2-24.15 209.97-25.75 213.57-25.75L213.57-25.75Q217.17-25.75 219.9-24.4 222.62-23.05 224.1-20.78 225.57-18.5 225.57-15.75L225.57-15.75Q225.57-14.5 225.32-13.6L225.32-13.6 225.07-12.75Q222.92-12.3 220.42-12L220.42-12Q215.17-11.25 209.82-11.25L209.82-11.25Q209.82-5.45 211.42-2.98 213.02-0.5 215.82-0.5L215.82-0.5Q217.77-0.5 219.45-1.43 221.12-2.35 222.1-3.88 223.07-5.4 223.07-7L223.07-7 224.32-7Q224.32-5 223.12-3.2 221.92-1.4 219.77-0.33 217.62 0.75 214.82 0.75L214.82 0.75ZM209.82-12.5Q213.02-12.5 215.02-12.75L215.02-12.75Q215.87-12.8 216.82-13L216.82-13Q216.87-13.25 217.07-14.1L217.07-14.1Q217.32-15.35 217.32-16.75L217.32-16.75Q217.32-20.9 216.22-22.83 215.12-24.75 213.57-24.75L213.57-24.75Q209.82-24.75 209.82-12.5L209.82-12.5ZM230.26 0L230.26-0.75 233.26-1.5 233.26-23.5 230.26-24.25 230.26-25 234.76-25Q237.71-25 239.41-23.1L239.41-23.1Q240.06-22.35 240.51-21.25L240.51-21.25Q241.26-22.35 242.36-23.25L242.36-23.25Q244.86-25.25 247.96-25.25L247.96-25.25Q250.61-25.25 251.94-24.03 253.26-22.8 253.26-20.5L253.26-20.5Q253.26-18.8 252.24-17.78 251.21-16.75 249.51-16.75L249.51-16.75Q248.81-16.75 248.11-16.85L248.11-16.85 247.51-17 247.51-24Q244.96-24 242.86-22L242.86-22Q241.86-21 241.26-20L241.26-20 241.26-1.5 244.26-0.75 244.26 0 230.26 0Z" opacity="1" transform="matrix(1,0,0,1,0,0)" fill="#ffffff" class="undefined-text-1" data-fill-palette-color="secondary" id="text-1"></path></svg></g></svg></g></svg></g></svg></g><g transform="matrix(1,0,0,1,63.5759718238765,0)"><svg viewBox="0 0 80.848056352247 154.45246934749568" height="154.45246934749568" width="80.848056352247"><g><svg xmlns="http://www.w3.org/2000/svg" xmlns:xlink="http://www.w3.org/1999/xlink" version="1.1" x="0" y="0" viewBox="19.682355880737305 3.5 35.572967529296875 67.95874786376953" enable-background="new 0 0 75 75" xml:space="preserve" height="154.45246934749568" width="80.848056352247" class="icon-icon-0" data-fill-palette-color="accent" id="icon-0"><path d="M21.2 59.5c-1.1-2.6-4.2-12.2 3.8-24.7C36 18 31.7 3.5 31.7 3.5S46 8.8 41.7 37.5c-1 6.5-0.9 9 2 9.4 5 0.7 3.1-19.7 3.1-19.7s3.9 2 6.8 12.1c1.5 5.3 1.8 9.5 1.6 12.5-1 18.1-16.5 19.6-16.5 19.6S26.9 73 21.2 59.5z" fill="#ffffff" data-fill-palette-color="accent"></path></svg></g></svg></g><g></g></svg></g></svg></g></svg></g></svg></g><defs></defs></svg><rect width="320" height="360" fill="none" stroke="none" visibility="hidden"></rect></g></svg></g></svg>