<svg xmlns="http://www.w3.org/2000/svg" version="1.1" xmlns:xlink="http://www.w3.org/1999/xlink" xmlns:svgjs="http://svgjs.dev/svgjs" width="1000" height="623" viewBox="0 0 1000 623"><g transform="matrix(1,0,0,1,-0.6060606060606233,0.2522267206477409)"><svg viewBox="0 0 396 247" data-background-color="#ffffff" preserveAspectRatio="xMidYMid meet" height="623" width="1000" xmlns="http://www.w3.org/2000/svg" xmlns:xlink="http://www.w3.org/1999/xlink"><g id="tight-bounds" transform="matrix(1,0,0,1,0.2400000000000091,-0.09999999999999432)"><svg viewBox="0 0 395.52 247.2" height="247.2" width="395.52"><g><svg></svg></g><g><svg viewBox="0 0 395.52 247.2" height="247.2" width="395.52"><g transform="matrix(1,0,0,1,93.04549444293232,47.215199999999996)"><svg viewBox="0 0 209.42901111413533 152.7696" height="152.7696" width="209.42901111413533"><g><svg viewBox="0 0 209.42901111413533 152.7696" height="152.7696" width="209.42901111413533"><g><svg viewBox="0 0 209.42901111413533 152.7696" height="152.7696" width="209.42901111413533"><g transform="matrix(1,0,0,1,102.28205498030633,0)"><svg viewBox="0 0 107.146956133829 152.7696" height="152.7696" width="107.146956133829"><g id="textblocktransform"><svg viewBox="0 0 107.146956133829 152.7696" height="152.7696" width="107.146956133829" id="textblock"><g><svg viewBox="0 0 107.146956133829 152.7696" height="152.7696" width="107.146956133829"><g transform="matrix(1,0,0,1,0,0)"><svg width="107.146956133829" viewBox="3.450000047683716 -36 28.299999237060547 40.349998474121094" height="152.7696" data-palette-color="#ee3e38"><path d="M9.35 4.35L9.35 4.35Q7.1 4.35 6.25 3.35 5.4 2.35 5.4 0.8L5.4 0.8Q5.4-0.65 6-2.65 6.6-4.65 7.25-6.5L7.25-6.5Q8.1-8.95 9.3-12.25 10.5-15.55 11.88-19.15 13.25-22.75 14.68-26.25 16.1-29.75 17.45-32.6L17.45-32.6Q14-32.55 11.68-32.45 9.35-32.35 7.5-32.18 5.65-32 3.45-31.6L3.45-31.6Q3.6-33.3 5.2-34.25 6.8-35.2 9.5-35.6 12.2-36 15.65-36L15.65-36Q19.1-36 21.83-35.73 24.55-35.45 26.95-35.2 29.35-34.95 31.75-34.9L31.75-34.9Q30.05-33.35 27.85-32.95 25.65-32.55 23.2-32.55L23.2-32.55Q22.65-32.55 22.05-32.58 21.45-32.6 20.85-32.6 20.25-32.6 19.65-32.6L19.65-32.6Q18.05-28.6 15.98-22.5 13.9-16.4 11.8-8.75L11.8-8.75Q11.1-6.1 10.53-4 9.95-1.9 9.63-0.15 9.3 1.6 9.3 3.25L9.3 3.25Q9.3 3.5 9.3 3.8 9.3 4.1 9.35 4.35Z" opacity="1" transform="matrix(1,0,0,1,0,0)" fill="#ee3e38" class="undefined-text-0" data-fill-palette-color="primary" id="text-0"></path></svg></g></svg></g></svg></g></svg></g><g transform="matrix(1,0,0,1,0,43.27639055464684)"><svg viewBox="0 0 66.21681889070632 66.21681889070632" height="66.21681889070632" width="66.21681889070632"><g><svg xmlns="http://www.w3.org/2000/svg" xmlns:xlink="http://www.w3.org/1999/xlink" version="1.0" x="0" y="0" viewBox="10 10 80 80" enable-background="new 0 0 100 100" xml:space="preserve" height="66.21681889070632" width="66.21681889070632" class="icon-icon-0" data-fill-palette-color="accent" id="icon-0"><path fill="none" stroke="#5E1914" stroke-linecap="round" stroke-linejoin="round" stroke-miterlimit="10" d="M78.33 56.667l1.945 15.555L78.33 56.667z"></path><path fill="none" stroke="#5E1914" stroke-linecap="round" stroke-linejoin="round" stroke-miterlimit="10" d="M75.689 22.862v-3.157C75.021 14.236 70.37 10 64.722 10c-5.647 0-10.298 4.235-10.968 9.704v3.157c-1.433 0.509-2.461 1.859-2.461 3.461 0 3.145 1.596 5.689 3.582 5.778 1.828 5.631 5.549 9.496 9.847 9.496 4.297 0 8.016-3.864 9.846-9.496 1.986-0.089 3.583-2.633 3.583-5.778C78.15 24.721 77.118 23.371 75.689 22.862z"></path><path fill="none" stroke="#5E1914" stroke-linecap="round" stroke-linejoin="round" stroke-miterlimit="10" d="M63.359 24.58h-6.806v1.945c0 1.071 0.877 1.947 1.946 1.947h2.917c1.069 0 1.942-0.876 1.942-1.947V24.58z"></path><path fill="none" stroke="#5E1914" stroke-linecap="round" stroke-linejoin="round" stroke-miterlimit="10" d="M56.554 24.58l-2.8-1.718L56.554 24.58z"></path><path fill="none" stroke="#5E1914" stroke-linecap="round" stroke-linejoin="round" stroke-miterlimit="10" d="M66.081 24.58h6.806v1.945c0 1.071-0.875 1.947-1.944 1.947h-2.916c-1.071 0-1.945-0.876-1.945-1.947V24.58z"></path><path fill="none" stroke="#5E1914" stroke-linecap="round" stroke-linejoin="round" stroke-miterlimit="10" d="M72.889 24.58l2.801-1.718L72.889 24.58z"></path><path fill="none" stroke="#5E1914" stroke-linecap="round" stroke-linejoin="round" stroke-miterlimit="10" d="M63.359 24.58h2.722H63.359z"></path><path fill="none" stroke="#5E1914" stroke-linecap="round" stroke-linejoin="round" stroke-miterlimit="10" d="M62.292 35.745c1.342 1.341 3.519 1.341 4.86 0C65.811 37.086 63.634 37.086 62.292 35.745z"></path><path fill="none" stroke="#5E1914" stroke-linecap="round" stroke-linejoin="round" stroke-miterlimit="10" d="M75.689 22.862c-3.038 0-5.788-1.231-7.78-3.221l0 0c-2.147-2.147-4.961-3.222-7.777-3.222-3.522 0-6.378 2.885-6.378 6.443v-3.157C54.424 14.236 59.074 10 64.722 10c5.648 0 10.299 4.235 10.968 9.704V22.862z"></path><path fill="none" stroke="#5E1914" stroke-linecap="round" stroke-linejoin="round" stroke-miterlimit="10" d="M64.722 48.889c3.219 0 6.066-1.571 7.834-3.981-0.535-0.258-1.031-0.585-1.446-1.002-0.941-0.937-1.52-2.235-1.52-3.668v-0.429c-1.469 1.139-3.119 1.788-4.868 1.788-1.748 0-3.398-0.649-4.866-1.788v0.429c0 1.433-0.583 2.732-1.521 3.668-0.417 0.417-0.911 0.744-1.449 0.999C58.656 47.317 61.503 48.889 64.722 48.889z"></path><path fill="none" stroke="#5E1914" stroke-linecap="round" stroke-linejoin="round" stroke-miterlimit="10" d="M72.792 45.033c-0.084-0.034-0.155-0.089-0.236-0.125-1.768 2.41-4.615 3.981-7.834 3.981s-6.065-1.571-7.836-3.984c-0.078 0.04-0.151 0.092-0.236 0.128l-3.415 1.415c2.415 3.8 6.651 6.33 11.486 6.33 4.837 0 9.072-2.529 11.489-6.33L72.792 45.033z"></path><path fill="none" stroke="#5E1914" stroke-linecap="round" stroke-linejoin="round" stroke-miterlimit="10" d="M58.889 85.556H10v2.224C10 89.002 11.001 90 12.223 90h44.444c1.222 0 2.222-0.998 2.222-2.221V85.556z"></path><path fill="none" stroke="#5E1914" stroke-linecap="round" stroke-linejoin="round" stroke-miterlimit="10" d="M58.889 82.219c0 1.833-1.5 3.333-3.333 3.333H13.335c-1.834 0-3.335-1.5-3.335-3.333V57.774c0-1.833 1.5-3.335 3.335-3.335h42.221c1.833 0 3.333 1.502 3.333 3.335V82.219z"></path><path fill="none" stroke="#5E1914" stroke-linecap="round" stroke-linejoin="round" stroke-miterlimit="10" d="M55.556 54.439c1.833 0 3.333 1.502 3.333 3.335v14.447H90l-0.004-14.826c0-2.469-1-4.704-2.614-6.321L76.21 46.448c-2.417 3.8-6.652 6.33-11.489 6.33-4.835 0-9.071-2.529-11.486-6.33l-11.172 4.626c-0.938 0.938-1.66 2.089-2.107 3.365H55.556z"></path><circle fill="none" stroke="#5E1914" stroke-linecap="round" stroke-linejoin="round" stroke-miterlimit="10" cx="34.444" cy="70" r="3.3"></circle></svg></g></svg></g></svg></g></svg></g></svg></g><g><path d="M0 123.6c0-68.262 55.338-123.6 123.6-123.6 30.402 0 58.24 10.976 79.768 29.183l-11.147 0c-19.26-14.022-42.974-22.294-68.621-22.295-64.458 0-116.712 52.254-116.712 116.712 0 64.458 52.254 116.712 116.712 116.712 25.647 0 49.361-8.272 68.621-22.295l11.147 0c-21.528 18.206-49.366 29.183-79.768 29.183-68.262 0-123.6-55.338-123.6-123.6z" fill="#ee3e38" stroke="transparent" data-fill-palette-color="tertiary"></path></g></svg></g><defs></defs></svg><rect width="395.52" height="247.2" fill="none" stroke="none" visibility="hidden"></rect></g></svg></g></svg>